<?xml version="1.0" encoding="iso-8859-1"?>
<!-- Uploaded to: SVG Repo, www.svgrepo.com, Generator: SVG Repo Mixer Tools -->
<svg height="800px" width="800px" version="1.1" id="Layer_1" xmlns="http://www.w3.org/2000/svg" xmlns:xlink="http://www.w3.org/1999/xlink" 
	 viewBox="0 0 316.684 316.684" xml:space="preserve">
<g>
	<path style="fill:#D9A460;" d="M172.735,281.695c34.59-55.592,120.089-193,127.542-204.982c9.366-15.053-1.266-25.959-7.843-29.393
		c-40.11-20.936-85.714-32.781-134.092-32.781S64.361,26.385,24.25,47.32c-6.578,3.434-17.209,14.34-7.843,29.393
		c7.454,11.982,92.953,149.391,127.543,204.982C152.819,295.951,163.865,295.951,172.735,281.695z"/>
	<g>
		<path style="fill:#E94F3D;" d="M35.201,72.355c11.42,11.42,42.293,23.781,53.712,12.361c11.418-11.418-0.943-42.293-12.362-53.711
			c-11.418-11.418-29.931-11.418-41.35,0C23.784,42.424,23.784,60.937,35.201,72.355z"/>
		<path style="fill:#F47660;" d="M43.603,39.408c6.42-6.42,16.864-6.42,23.283,0c3.501,3.5,8.513,11.527,11.247,20.877
			c2.534,8.67,1.515,13.459,0.661,14.313c-0.853,0.854-5.642,1.873-14.312-0.662c-9.35-2.732-17.376-7.744-20.878-11.246
			C37.185,56.269,37.185,45.826,43.603,39.408z"/>
	</g>
	<g>
		<path style="fill:#E94F3D;" d="M288.477,63.809c-0.001-16.15-13.09-46.721-29.239-46.723C243.091,17.086,230,47.66,230,63.809
			s13.091,29.238,29.239,29.238C275.386,93.047,288.477,79.955,288.477,63.809z"/>
		<path style="fill:#F47660;" d="M259.238,81.164c-9.078,0-16.463-7.385-16.463-16.463c0-4.951,2.131-14.172,6.81-22.715
			c4.338-7.922,8.446-10.59,9.653-10.59s5.313,2.668,9.652,10.59c4.679,8.543,6.81,17.764,6.811,22.715
			C275.701,73.779,268.315,81.164,259.238,81.164z"/>
	</g>
	<g>
		<path style="fill:#E94F3D;" d="M172.836,58.254c11.419-11.42,23.781-42.293,12.362-53.713
			c-11.418-11.418-42.292,0.943-53.712,12.363c-11.418,11.418-11.418,29.932,0.001,41.35
			C142.904,69.672,161.418,69.67,172.836,58.254z"/>
		<path style="fill:#F47660;" d="M139.888,49.852c-6.419-6.418-6.419-16.863,0.001-23.283c3.501-3.5,11.527-8.514,20.876-11.246
			c8.669-2.533,13.46-1.516,14.313-0.662c0.854,0.854,1.872,5.645-0.663,14.313c-2.731,9.35-7.744,17.377-11.246,20.879
			C156.751,56.269,146.306,56.269,139.888,49.852z"/>
	</g>
	<path style="fill:#F2D383;" d="M172.735,305.992c34.59-55.592,120.089-193,127.542-204.982c9.366-15.053-1.266-25.959-7.843-29.393
		c-40.11-20.936-85.714-32.781-134.092-32.781S64.361,50.682,24.25,71.617c-6.578,3.434-17.209,14.34-7.843,29.393
		c7.454,11.982,92.953,149.391,127.543,204.982C152.819,320.248,163.865,320.248,172.735,305.992z"/>
	<path style="fill:#FFFFFF;" d="M130.92,27.5c-6.449,0-12.218,2.867-16.139,7.381c-0.198-0.005-0.392-0.029-0.591-0.029
		c-3.034,0-5.916,0.641-8.531,1.779c-3.868-5.516-10.262-9.131-17.511-9.131c-9.528,0-17.593,6.234-20.358,14.843
		c-0.343-0.017-0.681-0.052-1.028-0.052c-11.812,0-21.386,9.572-21.386,21.385c0,11.811,9.575,21.387,21.386,21.387
		c9.527,0,17.591-6.234,20.357-14.843c0.343,0.017,0.682,0.052,1.029,0.052c3.034,0,5.916-0.641,8.531-1.779
		c3.868,5.516,10.263,9.131,17.511,9.131c6.449,0,12.217-2.867,16.138-7.381c0.198,0.005,0.392,0.029,0.592,0.029
		c11.811,0,21.386-9.574,21.386-21.387C152.305,37.074,142.731,27.5,130.92,27.5z"/>
	<path style="fill:#FFFFFF;" d="M270.89,56.548c-2.792-8.563-10.831-14.755-20.326-14.755c-3.304,0-6.419,0.771-9.212,2.107
		c-3.824-3.582-8.95-5.791-14.603-5.791c-0.572,0-1.133,0.041-1.693,0.086c-3.253-7.662-10.845-13.035-19.693-13.035
		c-11.812,0-21.386,9.572-21.386,21.385c0,11.811,9.574,21.387,21.386,21.387c0.572,0,1.133-0.041,1.694-0.086
		c3.253,7.662,10.844,13.035,19.692,13.035c3.304,0,6.42-0.771,9.213-2.109c2.945,2.76,6.664,4.691,10.804,5.435
		c2.792,8.563,10.83,14.757,20.325,14.757c11.811,0,21.386-9.576,21.386-21.387C288.477,67.062,280.886,58.343,270.89,56.548z"/>
	<path style="fill:#5A3C3D;" d="M151.973,295.598c-3.403,0.002-6.705-1.789-8.487-4.969c-5.197-9.275-6.452-17.205-3.836-24.244
		c4.027-10.83,15.677-15.059,25.957-18.789c13.037-4.732,19.203-7.693,19.428-14.385c0.081-2.408-0.594-3.098-0.919-3.428
		c-4.53-4.625-22.672-4.381-35.921-4.207c-12.817,0.174-26.075,0.35-36.77-2.324c-10.497-2.623-23.101-9.336-23.539-26.414
		c-0.203-7.928,2.442-14.85,7.649-20.02c13.655-13.551,42.183-12.602,72.388-11.6c27.792,0.928,62.377,2.074,65.344-11.947
		c0.72-3.4-0.131-4.346-0.453-4.699c-1.329-1.473-6.486-4.9-25.614-4.93c-0.084-0.002-0.17-0.002-0.254-0.002
		c-14.746,0-33.307,1.99-51.263,3.914c-48.734,5.221-90.821,9.729-99.624-15.146c-3.327-9.4-1.497-18.686,5.152-26.141
		c12.464-13.977,43.137-22.588,91.167-25.594c37.535-2.346,74.689-0.367,88.925,2.902c5.231,1.201,8.498,6.414,7.296,11.646
		c-1.202,5.23-6.414,8.5-11.647,7.297c-10.987-2.523-46.069-4.779-83.36-2.445c-59.764,3.738-74.716,15.588-77.874,19.129
		c-1.963,2.201-2.312,3.961-1.334,6.721c0.324,0.918,2.943,5.531,22.652,6.172c15.718,0.512,36.488-1.715,56.577-3.869
		c42.575-4.561,79.345-8.5,93.629,7.318c3.565,3.949,7.334,10.928,5.042,21.754c-2.968,14.02-14.47,22.795-34.185,26.076
		c-14.813,2.467-33.119,1.859-50.82,1.27c-22.431-0.744-50.349-1.672-58.05,5.971c-0.993,0.984-1.996,2.436-1.911,5.725
		c0.18,7.006,6.298,10.254,40.62,9.801c20.42-0.27,39.71-0.527,50.063,10.039c3.113,3.176,6.761,8.824,6.461,17.688
		c-0.692,20.555-19.667,27.441-32.223,31.998c-5.041,1.83-13.477,4.893-14.37,7.295c-0.281,0.752-0.054,3.279,2.573,7.967
		c2.624,4.682,0.955,10.605-3.728,13.23C155.213,295.199,153.581,295.598,151.973,295.598z"/>
</g>
</svg>